# xmcd
#
# Track frame offsets: 
#        150
#        11956
#        28398
#        45798
#        60948
#        77323
#        97732
#        111199
#        129493
#        145490
#        159420
#
# Disc length: 2371 seconds
#
# Revision: 0
# Processed by: cddbd v1.5.2PL0 Copyright (c) Steve Scherf et al.
# Submitted via: ExactAudioCopy v0.99pb4
#
DISCID=7f09410b
DTITLE=Dolly Parton, Linda Rondstadt, Emmylou Harris - Trio
DYEAR=2009
DGENRE=Country
TTITLE0=The Pain Of Loving You
TTITLE1=Making Plans
TTITLE2=To Know Him Is To Love Him
TTITLE3=Hobo's Meditation
TTITLE4=Wildflowers
TTITLE5=Telling Me Lies
TTITLE6=My dear Companion
TTITLE7=Those Memories Of You
TTITLE8=I'v Had Enough
TTITLE9=Rosewood Casket
TTITLE10=Farther Along
EXTD=
EXTT0=
EXTT1=
EXTT2=
EXTT3=
EXTT4=
EXTT5=
EXTT6=
EXTT7=
EXTT8=
EXTT9=
EXTT10=
PLAYORDER=
